<?xml version="1.0" encoding="iso-8859-1"?>
<!-- Generator: Adobe Illustrator 18.0.0, SVG Export Plug-In . SVG Version: 6.00 Build 0)  -->
<!DOCTYPE svg PUBLIC "-//W3C//DTD SVG 1.1//EN" "http://www.w3.org/Graphics/SVG/1.1/DTD/svg11.dtd">
<svg version="1.1" id="objects" xmlns="http://www.w3.org/2000/svg" xmlns:xlink="http://www.w3.org/1999/xlink" x="0px" y="0px"
	 viewBox="0 0 522.801 290.868" style="enable-background:new 0 0 522.801 290.868;" xml:space="preserve">
<g>
	<g>
		<path style="fill:#0A8379;" d="M28.444,291.489c-7.892,0-14.606-2.776-20.141-8.329C2.768,277.607,0,270.872,0,262.956
			c0-7.798,2.776-14.473,8.329-20.026c5.552-5.552,12.287-8.329,20.204-8.329c7.798,0,14.473,2.777,20.026,8.329
			c5.552,5.553,8.329,12.229,8.329,20.026c0,5.908-1.537,11.225-4.608,15.95h2.836c0.649,0,1.166,0.252,1.551,0.753
			c0.383,0.503,0.576,1.079,0.576,1.728c0,0.532-0.193,1.049-0.576,1.551c-0.385,0.503-0.901,0.753-1.551,0.753H40.052
			c3.722-2.067,6.66-4.918,8.817-8.551c2.156-3.633,3.234-7.694,3.234-12.184c0-6.498-2.304-12.051-6.912-16.659
			s-10.161-6.912-16.659-6.912c-6.499,0-12.082,2.304-16.748,6.912c-4.668,4.608-7,10.161-7,16.659
			c0,6.499,2.325,12.082,6.977,16.748c4.651,4.668,10.214,7,16.691,7h26.495c0.647,0,1.191,0.281,1.632,0.842
			c0.442,0.562,0.663,1.167,0.663,1.816c0,1.418-0.766,2.127-2.297,2.127H28.444z M28.533,283.691
			c-5.671,0-10.516-2.008-14.532-6.026c-4.018-4.017-6.026-8.919-6.026-14.71c0-5.671,2.008-10.514,6.026-14.532
			c4.017-4.017,8.861-6.026,14.532-6.026c5.671,0,10.514,2.009,14.532,6.026c4.017,4.018,6.025,8.861,6.025,14.532
			c0,5.731-1.994,10.62-5.981,14.665C39.122,281.668,34.262,283.691,28.533,283.691z M28.533,278.906
			c4.371,0,8.093-1.565,11.165-4.697c3.071-3.13,4.608-6.881,4.608-11.254c0-4.253-1.537-7.915-4.608-10.988
			c-3.072-3.071-6.794-4.608-11.165-4.608c-4.372,0-8.123,1.537-11.254,4.608c-3.132,3.072-4.696,6.735-4.696,10.988
			c0,4.372,1.565,8.123,4.696,11.254C20.41,277.341,24.161,278.906,28.533,278.906z"/>
		<path style="fill:#0A8379;" d="M62.382,269.69v-31.9c0-0.767,0.221-1.343,0.664-1.728c0.443-0.384,0.989-0.576,1.639-0.576
			c0.413,0,0.798,0.088,1.152,0.266c0.886,0.473,1.329,1.152,1.329,2.038v31.9c0,4.608,1.653,8.566,4.962,11.874
			c3.308,3.309,7.324,4.962,12.051,4.962c4.666,0,8.669-1.639,12.007-4.918c3.337-3.279,5.007-7.251,5.007-11.918v-31.9
			c0-1.535,0.767-2.304,2.304-2.304c0.532,0,1.077,0.221,1.639,0.664c0.561,0.443,0.842,0.99,0.842,1.639v31.9
			c0,5.967-2.142,11.063-6.424,15.285c-4.284,4.224-9.408,6.336-15.374,6.336c-5.967,0-11.092-2.112-15.374-6.336
			C64.522,280.753,62.382,275.658,62.382,269.69z M70.18,269.69v-31.9c0-1.535,0.767-2.304,2.304-2.304
			c0.532,0,1.077,0.221,1.639,0.664c0.561,0.443,0.842,0.99,0.842,1.639v32.078c0,2.777,0.944,4.993,2.836,6.646
			c1.653,1.477,3.722,2.215,6.203,2.215s4.608-0.738,6.38-2.215c2.008-1.653,3.013-3.869,3.013-6.646V237.79
			c0-1.535,0.767-2.304,2.304-2.304c0.532,0,1.077,0.221,1.639,0.664c0.561,0.443,0.842,0.99,0.842,1.639v31.9
			c0,3.841-1.374,7.104-4.12,9.792c-2.747,2.689-6.041,4.032-9.88,4.032c-3.841,0-7.133-1.343-9.88-4.032
			C71.553,276.794,70.18,273.531,70.18,269.69z"/>
		<path style="fill:#0A8379;" d="M139.473,290.868c-8.212,0-15.227-2.736-21.045-8.209c-5.819-5.473-8.728-12.026-8.728-19.659
			c0-7.574,2.894-14.081,8.684-19.525c5.789-5.444,12.818-8.166,21.09-8.166h10.811c0.767,0,1.343,0.252,1.728,0.753
			c0.384,0.503,0.576,1.138,0.576,1.905c0,0.591-0.208,1.123-0.62,1.595c-0.414,0.474-0.975,0.709-1.684,0.709h-10.811
			c-6.794,0-12.569,2.202-17.323,6.602c-4.756,4.401-7.133,9.762-7.133,16.083c0,6.262,2.393,11.639,7.178,16.127
			c4.785,4.49,10.545,6.735,17.279,6.735h11.165c0.767,0,1.373,0.256,1.816,0.767c0.443,0.511,0.665,1.157,0.665,1.938
			c0,0.543-0.222,1.069-0.665,1.58c-0.443,0.511-1.05,0.766-1.816,0.766H139.473z M118.56,261.715c0-5.198,2.038-9.57,6.114-13.115
			c4.076-3.544,9.067-5.317,14.975-5.317h10.633c0.767,0,1.343,0.252,1.728,0.753c0.384,0.503,0.576,1.079,0.576,1.728
			c0,0.591-0.208,1.123-0.62,1.595c-0.414,0.474-0.975,0.709-1.684,0.709h-10.811c-3.132,0-5.952,0.768-8.462,2.304
			c-2.511,1.537-4.475,3.604-5.893,6.203h19.317c0.709,0,1.27,0.296,1.684,0.886c0.413,0.591,0.62,1.241,0.62,1.949
			c0,1.537-0.768,2.304-2.304,2.304H118.56z M118.56,264.551h25.875c0.767,0,1.343,0.221,1.728,0.664
			c0.383,0.443,0.576,1.05,0.576,1.817c0,1.655-0.768,2.481-2.304,2.481h-19.495c1.358,2.541,3.337,4.594,5.937,6.159
			c2.599,1.566,5.464,2.348,8.595,2.348h11.165c0.767,0,1.373,0.252,1.816,0.753c0.443,0.503,0.665,1.079,0.665,1.728
			c0,0.532-0.222,1.049-0.665,1.551c-0.443,0.503-1.05,0.753-1.816,0.753H139.65c-5.613,0-10.531-1.786-14.754-5.361
			C120.672,273.87,118.56,269.573,118.56,264.551z"/>
		<path style="fill:#0A8379;" d="M188.031,290.868c-8.212,0-15.227-2.736-21.045-8.209c-5.819-5.473-8.728-12.026-8.728-19.659
			c0-7.574,2.894-14.081,8.684-19.525c5.789-5.444,12.818-8.166,21.09-8.166h10.811c0.767,0,1.343,0.252,1.728,0.753
			c0.384,0.503,0.576,1.138,0.576,1.905c0,0.591-0.208,1.123-0.62,1.595c-0.414,0.474-0.975,0.709-1.684,0.709h-10.811
			c-6.794,0-12.569,2.202-17.323,6.602c-4.756,4.401-7.133,9.762-7.133,16.083c0,6.262,2.393,11.639,7.178,16.127
			c4.785,4.49,10.545,6.735,17.279,6.735h11.165c0.767,0,1.373,0.256,1.816,0.767c0.443,0.511,0.665,1.157,0.665,1.938
			c0,0.543-0.222,1.069-0.665,1.58c-0.443,0.511-1.05,0.766-1.816,0.766H188.031z M167.119,261.715c0-5.198,2.038-9.57,6.114-13.115
			c4.076-3.544,9.067-5.317,14.975-5.317h10.633c0.767,0,1.343,0.252,1.728,0.753c0.384,0.503,0.576,1.079,0.576,1.728
			c0,0.591-0.208,1.123-0.62,1.595c-0.414,0.474-0.975,0.709-1.684,0.709h-10.811c-3.132,0-5.952,0.768-8.462,2.304
			c-2.511,1.537-4.475,3.604-5.893,6.203h19.317c0.709,0,1.27,0.296,1.684,0.886c0.413,0.591,0.62,1.241,0.62,1.949
			c0,1.537-0.768,2.304-2.304,2.304H167.119z M167.119,264.551h25.875c0.767,0,1.343,0.221,1.728,0.664
			c0.383,0.443,0.576,1.05,0.576,1.817c0,1.655-0.768,2.481-2.304,2.481h-19.495c1.358,2.541,3.337,4.594,5.937,6.159
			c2.599,1.566,5.464,2.348,8.595,2.348h11.165c0.767,0,1.373,0.252,1.816,0.753c0.443,0.503,0.665,1.079,0.665,1.728
			c0,0.532-0.222,1.049-0.665,1.551c-0.443,0.503-1.05,0.753-1.816,0.753h-10.988c-5.613,0-10.531-1.786-14.754-5.361
			C169.23,273.87,167.119,269.573,167.119,264.551z"/>
		<path style="fill:#0A8379;" d="M251.653,256.433v31.95c0,0.77-0.252,1.376-0.753,1.819c-0.503,0.444-1.079,0.666-1.728,0.666
			c-0.532,0-1.049-0.222-1.551-0.666c-0.503-0.443-0.753-1.05-0.753-1.819v-31.956c0-4.616-1.655-8.58-4.962-11.895
			c-3.309-3.313-7.266-4.971-11.874-4.971c-4.727,0-8.773,1.657-12.14,4.971c-3.367,3.315-5.051,7.279-5.051,11.895v31.956
			c0,0.77-0.252,1.376-0.753,1.819c-0.503,0.444-1.079,0.666-1.728,0.666c-0.532,0-1.049-0.222-1.551-0.666
			c-0.503-0.443-0.753-1.05-0.753-1.819v-31.95c0-5.916,2.156-11.034,6.469-15.353c4.311-4.32,9.481-6.48,15.507-6.48
			c5.907,0,10.988,2.131,15.241,6.391C249.527,245.251,251.653,250.399,251.653,256.433z M243.856,256.425v31.958
			c0,0.77-0.252,1.376-0.753,1.819c-0.503,0.444-1.079,0.666-1.728,0.666c-0.532,0-1.05-0.222-1.551-0.666
			c-0.503-0.443-0.753-1.051-0.753-1.821v-32.143c0-2.664-0.93-4.75-2.791-6.26c-1.861-1.509-4.003-2.265-6.424-2.265
			c-2.423,0-4.564,0.785-6.424,2.354c-1.861,1.569-2.791,3.684-2.791,6.348v31.965c0,0.77-0.252,1.378-0.753,1.821
			c-0.503,0.444-1.079,0.666-1.728,0.666c-0.532,0-1.05-0.222-1.551-0.666c-0.503-0.443-0.753-1.05-0.753-1.819v-31.958
			c0-3.788,1.387-7.072,4.165-9.854c2.776-2.782,6.114-4.173,10.013-4.173c3.839,0,7.103,1.376,9.792,4.129
			C242.511,249.279,243.856,252.578,243.856,256.425z"/>
		<path style="fill:#0A8379;" d="M339.201,252.763v35.612c0,0.713-0.296,1.307-0.886,1.782c-0.591,0.475-1.241,0.712-1.949,0.712
			c-0.532,0-1.05-0.222-1.551-0.668c-0.503-0.446-0.753-1.053-0.753-1.826v-35.63c0-3.978-1.344-7.169-4.032-9.574
			c-2.689-2.405-5.835-3.608-9.437-3.608c-2.363,0-4.608,0.576-6.734,1.728c-2.127,1.152-3.841,2.88-5.14,5.184
			c-1.182-2.243-2.807-3.956-4.874-5.138c-2.068-1.183-4.284-1.774-6.646-1.774c-3.604,0-6.765,1.159-9.481,3.474
			c-3.013,2.553-4.519,5.79-4.519,9.709v35.63c0,0.773-0.252,1.38-0.753,1.826c-0.503,0.446-1.079,0.668-1.728,0.668
			c-0.532,0-1.05-0.222-1.551-0.666c-0.503-0.443-0.753-1.05-0.753-1.819v-35.5c0-5.088,1.934-9.408,5.804-12.958
			c3.868-3.55,8.255-5.325,13.159-5.325c2.067,0,4.076,0.37,6.025,1.108c1.949,0.739,3.722,1.847,5.317,3.323
			c3.367-2.953,7.266-4.431,11.697-4.431c4.962,0,9.274,1.632,12.937,4.897C337.251,243,339.201,247.421,339.201,252.763z
			 M291.173,252.865v35.517c0,0.77-0.252,1.378-0.753,1.821c-0.503,0.444-1.138,0.666-1.905,0.666c-0.532,0-1.05-0.222-1.551-0.666
			c-0.503-0.443-0.753-1.05-0.753-1.819v-35.511c0-3.136,1.048-5.606,3.146-7.412c2.096-1.806,4.533-2.708,7.311-2.708
			c2.836,0,5.257,0.829,7.266,2.485c2.244,1.894,3.367,4.439,3.367,7.634v35.511c0,0.533-0.148,1.006-0.443,1.42
			c-0.532,0.71-1.212,1.065-2.038,1.065c-1.418,0-2.127-0.828-2.127-2.487v-35.517c0-1.657-0.591-2.989-1.772-3.996
			c-1.182-1.005-2.54-1.509-4.076-1.509c-1.537,0-2.866,0.504-3.988,1.509C291.734,249.876,291.173,251.208,291.173,252.865z
			 M326.263,252.865c0-1.717-0.576-3.063-1.728-4.04c-1.152-0.976-2.467-1.465-3.943-1.465c-1.418,0-2.689,0.504-3.81,1.509
			c-1.123,1.007-1.684,2.338-1.684,3.996v35.517c0,0.77-0.221,1.378-0.664,1.821c-0.443,0.444-0.99,0.666-1.639,0.666
			c-0.532,0-1.05-0.222-1.551-0.668c-0.503-0.446-0.753-1.055-0.753-1.828v-35.638c0-2.968,0.975-5.493,2.924-7.572
			c1.949-2.08,4.4-3.12,7.355-3.12c2.836,0,5.286,1.04,7.355,3.12c2.067,2.08,3.101,4.604,3.101,7.572v35.638
			c0,0.773-0.252,1.382-0.753,1.828c-0.503,0.446-1.079,0.668-1.728,0.668c-0.651,0-1.227-0.222-1.728-0.666
			c-0.503-0.443-0.753-1.051-0.753-1.821V252.865z"/>
		<path style="fill:#0A8379;" d="M366.492,291.666c-6.38,0-11.845-2.805-16.393-8.418c-4.55-5.612-6.823-12.375-6.823-20.292
			c0-7.798,2.273-14.473,6.823-20.026c4.548-5.552,10.013-8.329,16.393-8.329s11.843,2.777,16.393,8.329
			c4.548,5.553,6.823,12.229,6.823,20.026c0,7.917-2.275,14.681-6.823,20.292C378.336,288.861,372.872,291.666,366.492,291.666z
			 M366.492,286.703c5.257,0,9.792-2.318,13.602-6.956c3.81-4.637,5.715-10.235,5.715-16.792c0-6.498-1.891-12.051-5.671-16.659
			c-3.781-4.608-8.329-6.912-13.646-6.912c-5.317,0-9.866,2.304-13.646,6.912c-3.781,4.608-5.671,10.161-5.671,16.659
			c0,6.499,1.89,12.082,5.671,16.748C356.626,284.371,361.175,286.703,366.492,286.703z M366.492,283.691
			c-4.608,0-8.566-2.008-11.874-6.026c-3.309-4.017-4.962-8.919-4.962-14.71c0-5.671,1.653-10.514,4.962-14.532
			c3.308-4.017,7.266-6.026,11.874-6.026s8.565,2.009,11.874,6.026c3.308,4.018,4.962,8.861,4.962,14.532
			c0,5.731-1.639,10.62-4.918,14.665C375.132,281.668,371.158,283.691,366.492,283.691z M366.492,278.906
			c3.544,0,6.557-1.565,9.038-4.697c2.481-3.13,3.722-6.881,3.722-11.254c0-4.253-1.241-7.915-3.722-10.988
			c-2.481-3.071-5.494-4.608-9.038-4.608c-3.604,0-6.661,1.522-9.171,4.564c-2.512,3.043-3.766,6.721-3.766,11.032
			c0,4.372,1.24,8.123,3.722,11.254C359.757,277.341,362.829,278.906,366.492,278.906z"/>
		<path style="fill:#0A8379;" d="M400.872,282.184c3.544,2.481,7.443,3.722,11.697,3.722c6.026,0,11.342-2.16,15.95-6.481
			c4.843-4.558,7.266-10.032,7.266-16.425c0-7.043-2.541-12.666-7.621-16.87c-4.727-3.906-10.633-5.859-17.722-5.859
			c-3.367,0-6.307,1.228-8.817,3.684c-2.511,2.456-3.766,5.371-3.766,8.743v35.684c0,0.77-0.252,1.376-0.753,1.819
			c-0.503,0.444-1.079,0.666-1.728,0.666c-0.532,0-1.05-0.222-1.551-0.666c-0.503-0.443-0.753-1.05-0.753-1.819v-35.856
			c0-4.615,1.742-8.638,5.228-12.071c3.485-3.431,7.532-5.148,12.14-5.148c8.329,0,15.359,2.426,21.09,7.277
			c6.143,5.207,9.216,12.012,9.216,20.414c0,7.159-2.791,13.593-8.374,19.303c-5.583,5.71-11.889,8.565-18.919,8.565
			c-2.658,0-5.317-0.501-7.975-1.507c-0.177,0.503-0.458,0.879-0.842,1.13c-0.385,0.252-0.813,0.377-1.285,0.377
			c-0.591,0-1.152-0.235-1.684-0.709c-0.532-0.472-0.798-1.063-0.798-1.772V282.184z M400.872,278.374v-25.52
			c0-3.308,1.447-5.848,4.342-7.621c2.362-1.418,5.286-2.127,8.773-2.127c5.375,0,9.88,1.936,13.513,5.804
			c3.633,3.87,5.45,8.551,5.45,14.045c0,5.494-1.936,10.146-5.804,13.956c-3.87,3.81-8.61,5.716-14.222,5.716
			c-2.541,0-4.933-0.472-7.178-1.418C404.269,280.56,402.645,279.615,400.872,278.374z M405.835,275.893
			c2.362,1.182,4.666,1.772,6.912,1.772c4.017,0,7.502-1.329,10.456-3.987c3.19-2.836,4.785-6.409,4.785-10.722
			c0-4.962-1.832-8.742-5.494-11.342c-3.132-2.245-7.148-3.367-12.051-3.367c-1.183,0-2.246,0.443-3.19,1.329
			c-0.946,0.886-1.418,1.98-1.418,3.279V275.893z"/>
		<path style="fill:#0A8379;" d="M474.065,290.868c-8.212,0-15.227-2.736-21.045-8.209c-5.819-5.473-8.728-12.026-8.728-19.659
			c0-7.574,2.894-14.081,8.684-19.525c5.789-5.444,12.818-8.166,21.089-8.166h10.811c0.767,0,1.342,0.252,1.728,0.753
			c0.384,0.503,0.576,1.138,0.576,1.905c0,0.591-0.208,1.123-0.621,1.595c-0.414,0.474-0.975,0.709-1.683,0.709h-10.811
			c-6.793,0-12.569,2.202-17.323,6.602c-4.756,4.401-7.133,9.762-7.133,16.083c0,6.262,2.393,11.639,7.178,16.127
			c4.785,4.49,10.545,6.735,17.279,6.735h11.165c0.767,0,1.374,0.256,1.817,0.767c0.443,0.511,0.664,1.157,0.664,1.938
			c0,0.543-0.221,1.069-0.664,1.58c-0.443,0.511-1.05,0.766-1.817,0.766H474.065z M453.153,261.715c0-5.198,2.038-9.57,6.114-13.115
			c4.076-3.544,9.068-5.317,14.976-5.317h10.633c0.767,0,1.342,0.252,1.728,0.753c0.384,0.503,0.576,1.079,0.576,1.728
			c0,0.591-0.208,1.123-0.621,1.595c-0.414,0.474-0.975,0.709-1.683,0.709h-10.811c-3.131,0-5.952,0.768-8.462,2.304
			c-2.511,1.537-4.475,3.604-5.893,6.203h19.318c0.709,0,1.269,0.296,1.683,0.886c0.412,0.591,0.621,1.241,0.621,1.949
			c0,1.537-0.769,2.304-2.304,2.304H453.153z M453.153,264.551h25.875c0.767,0,1.342,0.221,1.728,0.664
			c0.384,0.443,0.576,1.05,0.576,1.817c0,1.655-0.769,2.481-2.304,2.481h-19.495c1.358,2.541,3.337,4.594,5.937,6.159
			c2.6,1.566,5.464,2.348,8.595,2.348h11.165c0.767,0,1.374,0.252,1.817,0.753c0.443,0.503,0.664,1.079,0.664,1.728
			c0,0.532-0.221,1.049-0.664,1.551c-0.443,0.503-1.05,0.753-1.817,0.753h-10.987c-5.613,0-10.531-1.786-14.754-5.361
			C455.265,273.87,453.153,269.573,453.153,264.551z"/>
		<path style="fill:#0A8379;" d="M495.331,275.071v-37.277c0-1.538,0.709-2.308,2.127-2.308c0.532,0,1.077,0.223,1.639,0.666
			c0.561,0.444,0.842,0.991,0.842,1.642v37.282c0,3.018,1.077,5.578,3.234,7.679c2.156,2.102,4.799,3.151,7.931,3.151h11.697
			c0.767,0,1.343,0.222,1.728,0.665c0.384,0.443,0.576,1.049,0.576,1.816c0,1.655-0.768,2.481-2.304,2.481h-11.697
			c-4.372,0-8.094-1.538-11.165-4.615C496.867,283.177,495.331,279.448,495.331,275.071z M503.129,275.007V237.79
			c0-1.535,0.767-2.304,2.304-2.304c0.532,0,1.077,0.221,1.639,0.664c0.561,0.443,0.842,0.99,0.842,1.639v37.217
			c0,0.886,0.279,1.61,0.842,2.171c0.561,0.562,1.343,0.842,2.348,0.842h11.697c0.767,0,1.343,0.252,1.728,0.753
			c0.384,0.503,0.576,1.079,0.576,1.728c0,0.591-0.208,1.123-0.62,1.595c-0.414,0.474-0.975,0.709-1.684,0.709h-11.697
			c-2.186,0-4.062-0.753-5.627-2.26C503.911,279.039,503.129,277.193,503.129,275.007z"/>
	</g>
	<g>
		<path style="fill:#0A8379;" d="M283.592,165.417c0,0,16.336-6.114,51.202-37.422s42.693-54.552,42.693-54.552
			s4.981,18.5-1.897,62.379c-6.878,43.879-18.263,71.63-18.263,71.63s16.638-84.669,14.266-104.118
			C357.598,127.764,333.842,151.492,283.592,165.417z"/>
		<path style="fill:#0A8379;" d="M256.059,170.214c0,0-31.545-10.91-66.412-42.219s-42.693-54.552-42.693-54.552
			s-4.981,18.5,1.897,62.379s18.263,71.63,18.263,71.63s-17.395-87.919-15.023-107.368
			C166.085,124.514,205.301,157.88,256.059,170.214z"/>
		<path style="fill:#0A8379;" d="M322.635,62.704c-2.927,4.288-4.802,20.781-23.157,33.603c0.08,1.928,27.577-21.223,29.113,2.277
			s-38.113,47.369-37.541,50.687c10.161-6.108,43.364-23.759,56.988-49.843C342.339,93.182,324.659,84.703,322.635,62.704z"/>
		<circle style="fill:#0A8379;" cx="323.805" cy="49.456" r="7.643"/>
		<path style="fill:#0A8379;" d="M212.771,67.309c2.927,4.288,18.184,18.391,36.539,31.213
			c4.397,15.032,13.957,42.127,10.614,33.729c-12.869-32.333-42.833-56.333-44.005-53c-3.597,10.236-10.414,31.622-10.662,34.667
			c11.377,17.015,41.421,38.399,40.091,39.663c0,0-43.426-17.352-57.05-43.436C193.999,103.899,210.747,89.308,212.771,67.309z"/>
		<circle style="fill:#0A8379;" cx="208.278" cy="56.893" r="7.643"/>
		<ellipse style="fill:#0A8379;" cx="377.192" cy="57.099" rx="10.467" ry="11.901"/>
		<ellipse style="fill:#0A8379;" cx="147.913" cy="57.099" rx="10.467" ry="11.901"/>
		<g>
			<g>
				<path style="fill:#0A8379;" d="M341.799,204.813"/>
			</g>
			<g>
				<path style="fill:#0A8379;" d="M340.309,200.771"/>
			</g>
			<path style="fill:#0A8379;" d="M269.998,3.856c-2.752-3.885-7.927-4.77-10.838-2.946c-2.911,1.824-5.521,2.74-5.578,7.848
				c-0.057,5.108,2.402,5.274,3.53,7.303c1.128,2.029,1.46,4.629,2.994,5.987c1.533,1.359,3.728,2.217,3.728,2.217
				s-4.657-3.166-5.142-5.719s-0.627-4.383-2.188-6.447c-1.56-2.063-1.097-6.026,0.727-8.092
				C259.055,1.942,263.993-0.46,269.998,3.856z"/>
			<path style="fill:#0A8379;" d="M270.315,4.221c2.924,0.282,7.239,2.374,8.859,7.171c1.619,4.797,1.615,9.149,1.18,12.151
				s-0.989,8.317-3.307,9.071c-2.317,0.755-8.913-4.298-9.817-5.841c7.181,4.734,9.734,5.425,10.691,3.883
				c0.957-1.542,2.577-7.224,1.915-13.244S276.06,5.763,270.315,4.221z"/>
			<path style="fill:#0A8379;" d="M268.222,4.813c-5.99,1.695-8.499,7.57-8.425,13.359C260.935,13.271,261.891,9.695,268.222,4.813z
				"/>
			<path style="fill:#0A8379;" d="M266.007,3.902c-3.833,0.396-4.574,0.319-6.489,2.606s-0.585,7.659-0.585,7.659
				S257.763,5.604,266.007,3.902z"/>
			<path style="fill:#0A8379;" d="M274.138,32.07c0.415-1.479-0.294,3.021-0.462,4.447c-0.169,1.426,0.551,3.433,1.982,3.779
				c1.431,0.346,7.825,1.685,8.924,2.496c1.098,0.812,6.529,5.911,14.11,16.408c7.58,10.497,7.099,10.399,7.048,10.795
				c-0.051,0.395-2.566,8.224-9.66,19.627c-1.171,1.725-1.669,3.047-2.999,3.077c-1.329,0.029-3.723-1.885-3.723-1.885
				s3.351,1.436,4.096,0.798s8.351-10.702,11.436-20.989c0.638-1.085-11.543-18.478-16.33-22.999
				c-2.767-2.71-3.723-4.096-4.627-4.468c-0.904-0.372-8.564-2.181-9.521-2.606C273.454,40.124,272.323,38.536,274.138,32.07z"/>
			<path style="fill:#0A8379;" d="M280.847,49.06c-0.945,2.865-0.24,3.563,0,5.133c0.24,1.57,1.019,2.476-0.768,5.544
				c-1.787,3.069-2.41,3.209-2.355,6.396c0.055,3.188-0.263,5.393,1.244,7.776c1.507,2.383,3.981,3.676,5.735,5.992
				s6.849,7.521,6.849,7.521s-3.897-3.612-8.737-8.239s-5.744-4.486-5.691-11.56s2.313-6.123,2.925-10.212
				S278.879,51.028,280.847,49.06z"/>
			<path style="fill:#0A8379;" d="M280.735,53.823c4.633,0.963,6.061,2.44,9.081,5.663s5.449,5.505,9.578,12.033
				c-0.368,2.308-2.07,6.009-3.519,8.624c-1.448,2.615-4.324,7.278-4.324,7.278s8.782-12.473,8.64-16.799
				C297.283,67.055,286.574,52.02,280.735,53.823z"/>
			<path style="fill:#0A8379;" d="M289.627,91.01c0.915,3.462,0.666,16.508-2.82,34.812s-6.522,26.792-3.448,36.795
				c3.074,10.003,11.35,19.734,30.031,25.628c18.681,5.894,34.863,11.25,34.863,11.25s-91.781,25.815-148.789,3.191
				c56.026,9.289,120.953-0.532,134.251-4.255c-10.106-2.128-41.956-10.362-51.431-29.96c-5.162-10.677-0.287-35.995,2.054-44.292
				C286.677,115.88,289.468,103.047,289.627,91.01z"/>
			<path style="fill:#0A8379;" d="M265.135,25.718c-0.017,1.32-0.051,9.172-1.611,10.113c-1.56,0.941-7.674-0.308-10.442-0.428
				s-5.281,2.769-10.965,10.101s-13.487,21.578-13.575,22.939c-0.088,1.361,6.118,10.497,9.637,14.519s10.896,10.731,11.862,10.848
				c0.966,0.116,1.496,0.828,5.991-0.233c-1.994-0.157-2.632,0.482-4.813-0.21s-17.606-15.339-21.435-25.126
				c3.298-7.373,4.654-8.778,9.973-16.49c5.319-7.712,8.466-13.215,13.04-14.917c1.297-0.372,5.213,0.691,7.872,0.691
				c2.659,0,3.883,0.638,4.468-1.915S265.135,25.718,265.135,25.718z"/>
			<path style="fill:#0A8379;" d="M248.88,50.815c-0.415,2.847-6.101,9.747-8.177,12.988s-2.474,3.754-2.521,4.558
				c-0.046,0.804,6.231,11.082,9.688,15.411c3.457,4.329,3.041,4.291,4.96,3.65c1.919-0.641,3.642-1.3,3.642-1.3
				s-2.379,2.139-4.56,2.032c-2.234-0.453-5.929-4.995-13.854-17.281c-1.038-1.444-1.28-2.197-1.059-3.204
				c0.299-1.366,1.411-2.852,2.176-3.924C240.505,61.883,245.848,55.868,248.88,50.815z"/>
			<path style="fill:#0A8379;" d="M248.774,45.85c-1.718,4.255,4.205,15.263,6.122,19.274c1.917,4.011,3.166,5.255,3.628,9.444
				s-0.046,4.909-0.818,7.166s-1.234,4.387-1.234,4.387s-1.309,6.727,0.361,12.429c1.671,5.702,9.297,34.463,9.945,42.83
				c-1.48,11.771-5.175,26.31-19.568,35.069s-64.751,24.484-64.751,24.484s50.075-10.478,66.102-22.534s19.999-33.048,19.716-36.878
				c-0.284-3.83-7.943-35.602-8.794-44.254c-0.851-8.652-1.359-9.929,0.313-16.311c1.672-6.383-0.236-11.489-3.324-16.311
				C253.383,59.822,247.852,49.751,248.774,45.85z"/>
		</g>
	</g>
</g>
</svg>
